<svg width="1078" height="785" viewBox="0 0 1078 785" fill="none" xmlns="http://www.w3.org/2000/svg">
<g clip-path="url(#clip0)">
<rect x="330" width="747" height="476" fill="#39384F"/>
<rect x="5" width="325" height="425" fill="#39384F"/>
<path d="M1059.18 551.167C1040.34 590.037 1007.72 619.777 970.398 642.407C955.092 651.612 939.175 659.761 922.758 666.797C912.018 671.447 901.132 675.69 890.099 679.527C835.369 698.637 777.458 707.977 719.448 708.007C709.968 708.017 700.488 707.774 691.008 707.277C688.288 707.137 685.569 706.977 682.849 706.797C668.518 705.847 654.235 704.324 639.998 702.227C639.718 702.187 639.429 702.147 639.148 702.097C609.369 697.7 580.01 690.819 551.378 681.527C545.828 679.727 540.312 677.837 534.828 675.857C533.348 675.337 531.868 674.787 530.398 674.247C524.218 671.957 518.085 669.554 511.998 667.037C506.878 664.927 501.788 662.737 496.728 660.467C491.748 658.217 486.802 655.894 481.889 653.497C473.849 649.557 465.895 645.427 458.028 641.107C451.958 637.747 445.968 634.26 440.059 630.647C425.402 621.695 411.219 611.988 397.568 601.567C392.748 597.887 387.995 594.114 383.309 590.247C380.059 587.567 376.838 584.827 373.568 582.167C366.668 576.557 359.568 571.227 351.648 567.237C349.258 566.033 346.809 564.951 344.309 563.997C334.963 560.539 325.118 558.624 315.158 558.327C298.168 557.657 280.628 560.817 264.198 565.497C256.389 567.707 248.668 570.247 240.948 572.847C237.778 573.917 234.612 574.99 231.448 576.067C224.908 578.297 218.369 580.477 211.768 582.467C209.568 583.127 207.369 583.777 205.158 584.387C196.335 586.927 187.342 588.839 178.248 590.107C157.94 592.689 137.314 590.892 117.758 584.837L116.088 584.317C113.288 583.437 110.518 582.477 107.758 581.427L106.088 580.787C103.429 579.757 100.819 578.654 98.2582 577.477L96.5882 576.717C94.1282 575.567 91.7181 574.367 89.3485 573.097C89.1483 572.997 88.9584 572.897 88.7582 572.787C87.8382 572.307 86.9286 571.787 86.0282 571.297C71.5091 563.171 58.3059 552.891 46.8685 540.807C46.5384 540.477 46.2284 540.137 45.8685 539.807C44.2782 538.087 42.7181 536.337 41.2083 534.547C40.6483 533.887 40.0882 533.227 39.5384 532.547C37.7484 530.357 36.0184 528.12 34.3485 525.837C34.0985 525.507 33.8582 525.167 33.6185 524.837C26.7894 515.385 21.1252 505.145 16.7484 494.337C16.6082 494.007 16.4784 493.667 16.3582 493.337C15.0281 489.907 13.8115 486.417 12.7083 482.867C12.2581 481.387 11.8284 479.867 11.4481 478.387C11.3182 477.947 11.1981 477.497 11.0882 477.057C5.61848 455.337 5.0282 432.747 5.0282 410.287V402.437C5.18835 366.107 5.74841 329.157 11.1083 293.327C11.1296 293.078 11.1662 292.831 11.2181 292.587C13.0182 280.526 15.4584 268.569 18.5282 256.767C21.7519 244.386 25.866 232.255 30.8382 220.467C43.1683 191.467 61.0985 165.077 81.0081 140.617C131.108 79.107 196.878 27.397 273.858 8.10699C356.808 -12.723 448.998 7.23699 515.908 60.507C535.638 76.207 553.429 94.707 575.298 107.167C576.038 107.597 576.788 108.017 577.548 108.427C580.438 109.997 583.392 111.424 586.408 112.707C590.405 114.414 594.519 115.835 598.718 116.957C612.008 120.527 625.898 120.847 639.148 116.417C640.228 116.047 641.308 115.657 642.378 115.227C644.648 114.327 646.818 113.487 648.908 112.707C663.168 107.397 674.148 104.817 691.478 105.747C732.634 108.066 773.207 116.557 811.838 130.937C813.398 131.507 814.958 132.097 816.508 132.687C917.218 171.237 1003.81 247.787 1048.79 346.157C1049.99 348.757 1051.14 351.377 1052.26 354.017C1079.09 416.637 1088.77 490.107 1059.18 551.167Z" fill="#39384F"/>
<path d="M63.608 512.617V513.017L63.458 513.197L63.608 512.617Z" fill="#CACACA"/>
<path d="M240.948 572.847C237.778 573.917 234.612 574.99 231.448 576.067V572.847H240.948Z" fill="white"/>
<path d="M598.718 58.7676H575.297V117.322H598.718V58.7676Z" fill="#494865"/>
<path d="M639.148 112.707V702.097C609.369 697.7 580.01 690.819 551.378 681.527C545.828 679.727 540.312 677.837 534.828 675.857C533.348 675.337 531.868 674.787 530.398 674.247C524.218 671.957 518.085 669.554 511.998 667.037C506.878 664.927 501.788 662.737 496.728 660.467C491.748 658.217 486.802 655.894 481.889 653.497C473.849 649.557 465.895 645.427 458.028 641.107C451.958 637.747 445.968 634.26 440.059 630.647V112.707H639.148Z" fill="#494865"/>
<path d="M719.448 112.707V708.007C709.968 708.017 700.488 707.774 691.008 707.277C688.288 707.137 685.569 706.977 682.849 706.797C668.518 705.847 654.235 704.324 639.998 702.227C639.718 702.187 639.429 702.147 639.148 702.097V112.707H719.448Z" fill="#363549"/>
<path d="M506.143 171.26H476.029V201.374H506.143V171.26Z" fill="#39384F"/>
<path d="M554.66 171.26H524.546V201.374H554.66V171.26Z" fill="#39384F"/>
<path d="M603.176 171.26H573.063V201.374H603.176V171.26Z" fill="#39384F"/>
<path d="M506.979 239.853H476.866V269.966H506.979V239.853Z" fill="#39384F"/>
<path d="M555.496 239.853H525.382V269.966H555.496V239.853Z" fill="#39384F"/>
<path d="M604.013 239.853H573.899V269.966H604.013V239.853Z" fill="#39384F"/>
<path d="M507.816 308.445H477.702V338.559H507.816V308.445Z" fill="#39384F"/>
<path d="M556.333 308.445H526.219V338.559H556.333V308.445Z" fill="#39384F"/>
<path d="M604.849 308.445H574.736V338.559H604.849V308.445Z" fill="#39384F"/>
<path d="M508.652 377.038H478.539V407.152H508.652V377.038Z" fill="#39384F"/>
<path d="M557.169 377.038H527.055V407.152H557.169V377.038Z" fill="#39384F"/>
<path d="M605.686 377.038H575.572V407.152H605.686V377.038Z" fill="#39384F"/>
<path d="M509.489 445.631H479.375V475.745H509.489V445.631Z" fill="white"/>
<path d="M558.006 445.631H527.892V475.745H558.006V445.631Z" fill="white"/>
<path d="M606.522 445.631H576.409V475.745H606.522V445.631Z" fill="white"/>
<path d="M510.325 514.223H480.211V544.337H510.325V514.223Z" fill="white"/>
<path d="M558.842 514.223H528.728V544.337H558.842V514.223Z" fill="white"/>
<path d="M607.359 514.223H577.245V544.337H607.359V514.223Z" fill="white"/>
<path d="M511.162 582.816H481.048V612.93H511.162V582.816Z" fill="white"/>
<path d="M559.679 582.816H529.565V612.93H559.679V582.816Z" fill="white"/>
<path d="M608.195 582.816H578.082V612.93H608.195V582.816Z" fill="white"/>
<path d="M511.998 651.407V667.037C506.878 664.927 501.788 662.737 496.728 660.467C491.748 658.217 486.802 655.894 481.889 653.497V651.407H511.998Z" fill="white"/>
<path d="M560.518 651.407V681.527H551.378C545.828 679.727 540.312 677.837 534.828 675.857C533.348 675.337 531.868 674.787 530.398 674.247V651.407L560.518 651.407Z" fill="white"/>
<path d="M609.032 651.409H578.918V681.523H609.032V651.409Z" fill="white"/>
<path d="M871.692 356.962H848.27V391.666H871.692V356.962Z" fill="#494865"/>
<path d="M890.099 388.687V679.527C835.369 698.637 777.458 707.977 719.448 708.007C709.968 708.017 700.488 707.774 691.008 707.277V388.687H890.099Z" fill="#494865"/>
<path d="M970.398 388.687V642.407C955.092 651.611 939.175 659.76 922.758 666.797C912.018 671.447 901.132 675.69 890.099 679.527V388.687H970.398Z" fill="#363549"/>
<path d="M760.438 445.631H730.324V475.745H760.438V445.631Z" fill="#39384F"/>
<path d="M808.955 445.631H778.841V475.745H808.955V445.631Z" fill="#39384F"/>
<path d="M857.471 445.631H827.357V475.745H857.471V445.631Z" fill="#39384F"/>
<path d="M761.274 514.223H731.16V544.337H761.274V514.223Z" fill="#39384F"/>
<path d="M809.791 514.223H779.677V544.337H809.791V514.223Z" fill="#39384F"/>
<path d="M858.308 514.223H828.194V544.337H858.308V514.223Z" fill="#39384F"/>
<path d="M762.111 582.816H731.997V612.93H762.111V582.816Z" fill="white"/>
<path d="M810.628 582.816H780.514V612.93H810.628V582.816Z" fill="white"/>
<path d="M859.144 582.816H829.03V612.93H859.144V582.816Z" fill="white"/>
<path d="M762.947 651.409H732.833V681.523H762.947V651.409Z" fill="white"/>
<path d="M811.464 651.409H781.35V681.523H811.464V651.409Z" fill="white"/>
<path d="M859.981 651.409H829.867V681.523H859.981V651.409Z" fill="white"/>
<path d="M714.574 717.18C714.574 717.18 725.287 755.279 770.152 753.548C815.017 751.816 834.413 716.488 834.413 716.488L714.574 717.18Z" fill="#3F3D56"/>
<path d="M96.331 568.594L83.513 592.07L85.594 636.133L392.751 727.401L526.504 743.85L500.355 584.338L408.852 568.136L271.586 572.058L155.211 550.584L96.331 568.594Z" fill="#2F2E41"/>
<path d="M139.089 723.068H131.16C123.495 723.096 115.982 720.928 109.51 716.821C103.037 712.715 97.8758 706.841 94.6356 699.894C82.4117 673.208 86.0327 636.307 86.0863 635.781C88.8563 603.886 106.337 583.077 129.587 584.021C155.254 585.056 177.142 673.835 178.061 677.614C179.586 683.987 179.185 690.669 176.908 696.813C174.075 704.551 168.922 711.226 162.153 715.925C155.384 720.625 147.329 723.119 139.089 723.068V723.068Z" fill="#3F3D56"/>
<path d="M462.428 784.027C461.071 783.995 459.719 783.864 458.381 783.636C448.121 782.02 438.424 777.88 430.159 771.589C421.895 765.298 415.323 757.052 411.034 747.593C407.819 740.601 404.726 733.443 401.841 726.316C390.257 697.695 399.968 647.661 415.748 628.295C429.675 611.202 443.693 611.337 464.913 611.538C467.092 611.559 469.349 611.579 471.691 611.584C495.252 611.622 520.161 698.293 528.346 726.774C528.997 729.04 529.536 730.916 529.953 732.322C531.235 736.65 531.083 741.826 529.5 747.706C524.505 766.257 508.046 780.015 488.543 781.943C474.535 783.325 465.748 784.027 462.428 784.027Z" fill="#3F3D56"/>
<path d="M85.5939 636.133C85.5939 636.133 76.5886 595.956 90.0965 568.594L103.711 535.691L155.157 583.488L166.904 658.278L368.219 688.779C368.219 688.779 355.751 566.17 434.027 561.321C512.303 556.472 549.445 688.779 549.445 688.779L588.501 717.18L860.736 697.092C860.736 697.092 865.542 710.253 858.636 717.18C851.731 724.108 521.308 745.582 521.308 745.582C521.308 745.582 504.683 581.409 438.876 596.649C373.068 611.889 392.751 727.401 392.751 727.401L157.636 686.009C157.636 686.009 150.016 574.482 111.224 574.482C72.4323 574.482 85.5939 636.133 85.5939 636.133Z" fill="#3F3D56"/>
<path d="M131.986 496.458L176.339 426.935L365.449 415.852L575.34 418.623L673.012 509.368L370.99 526.685L127.849 513.524L131.986 496.458Z" fill="#3F3D56"/>
<path d="M131.986 496.458C131.986 496.458 94.2528 497.245 90.0965 568.594C90.0965 568.594 130.274 495.86 164.909 657.954L371.683 691.55C371.683 691.55 364.063 556.472 442.339 566.862C520.616 577.253 539.319 701.248 539.319 701.248C539.319 701.248 554.558 731.727 638.376 726.878C722.194 722.029 847.574 714.41 860.736 697.092C860.736 697.092 891.215 593.878 796.314 527.378L673.012 509.368L393.85 514.909L131.986 496.458Z" fill="#6C63FF"/>
<path d="M226.56 545.042H203.008C202.37 545.045 201.737 544.921 201.147 544.678C200.556 544.436 200.02 544.079 199.568 543.628C199.115 543.178 198.756 542.643 198.512 542.053C198.267 541.464 198.141 540.831 198.141 540.193C198.141 539.555 198.267 538.923 198.512 538.333C198.756 537.744 199.115 537.208 199.568 536.758C200.02 536.307 200.556 535.951 201.147 535.708C201.737 535.465 202.37 535.342 203.008 535.344H226.56C227.843 535.349 229.072 535.862 229.977 536.771C230.883 537.68 231.391 538.91 231.391 540.193C231.391 541.476 230.883 542.707 229.977 543.615C229.072 544.524 227.843 545.037 226.56 545.042V545.042Z" fill="#CACACA"/>
<path d="M585.038 695.706C593.454 695.706 600.277 688.883 600.277 680.467C600.277 672.05 593.454 665.227 585.038 665.227C576.621 665.227 569.798 672.05 569.798 680.467C569.798 688.883 576.621 695.706 585.038 695.706Z" fill="white"/>
<path d="M577.487 605.689C567.054 605.689 554.597 601.235 543.448 592.646C523.773 577.49 515.508 555.111 525.022 542.761C534.536 530.41 558.283 532.693 577.957 547.848C587.465 555.173 594.624 564.378 598.114 573.769C601.625 583.215 601.011 591.726 596.382 597.733C592.26 603.084 585.465 605.689 577.487 605.689Z" fill="white"/>
<path d="M848.3 586.339C840.623 586.339 826.835 578.566 813.184 565.953C805.001 558.392 798.222 550.288 794.096 543.132C789.904 535.864 788.949 530.397 791.407 527.737C793.865 525.077 799.391 525.598 806.967 529.202C814.426 532.751 823.04 538.869 831.223 546.43C848.491 562.386 858.057 579.172 852.999 584.646C852.379 585.242 851.639 585.701 850.83 585.992C850.02 586.284 849.158 586.402 848.3 586.339V586.339Z" fill="white"/>
<path d="M204.526 496.444C204.361 496.444 204.195 496.436 204.029 496.421L153.94 491.764C153.026 491.679 152.149 491.362 151.391 490.843C150.634 490.323 150.023 489.62 149.614 488.798C149.205 487.976 149.013 487.063 149.056 486.146C149.099 485.229 149.376 484.338 149.86 483.558L178.105 438.02C178.567 437.275 179.204 436.653 179.96 436.21C180.717 435.767 181.57 435.515 182.446 435.477L219.806 433.829C220.664 433.791 221.52 433.959 222.301 434.319C223.081 434.68 223.764 435.221 224.293 435.9C224.821 436.578 225.18 437.373 225.339 438.218C225.497 439.063 225.451 439.933 225.205 440.757L209.69 492.6C209.354 493.71 208.672 494.682 207.742 495.374C206.812 496.066 205.685 496.441 204.526 496.444Z" fill="white"/>
<path d="M336.519 507.114C336.025 507.114 335.527 507.089 335.026 507.041L248.432 498.516C246.243 498.301 244.128 497.61 242.233 496.493C240.339 495.376 238.711 493.859 237.463 492.048C236.216 490.237 235.378 488.176 235.009 486.008C234.64 483.84 234.748 481.617 235.327 479.496L247.784 433.786C248.623 430.667 250.442 427.901 252.974 425.896C255.505 423.891 258.615 422.753 261.843 422.652L331.728 420.211C335.52 420.098 339.217 421.407 342.093 423.88C344.97 426.354 346.817 429.813 347.273 433.579L353.04 483.326C353.233 484.986 353.149 486.666 352.791 488.298L351.276 495.226C350.539 498.592 348.674 501.606 345.99 503.767C343.306 505.929 339.965 507.11 336.519 507.114Z" fill="white"/>
<path d="M404.102 509.519C401.567 509.511 399.11 508.649 397.126 507.072C395.142 505.494 393.748 503.294 393.168 500.827L377.892 434.797C377.511 433.152 377.507 431.442 377.879 429.795C378.251 428.148 378.99 426.606 380.041 425.285C381.092 423.963 382.427 422.896 383.948 422.162C385.469 421.428 387.135 421.047 388.824 421.047H569.977C571.479 421.05 572.965 421.354 574.348 421.939C575.731 422.524 576.983 423.38 578.031 424.456L637.201 485.461C638.721 487.029 639.751 489.005 640.164 491.149C640.578 493.293 640.357 495.511 639.528 497.531C638.7 499.551 637.3 501.285 635.501 502.522C633.701 503.758 631.58 504.443 629.397 504.492L404.351 509.516C404.268 509.518 404.184 509.519 404.102 509.519Z" fill="white"/>
<path d="M174.793 429.359L176.339 426.935C176.339 426.935 185.344 401.998 309.339 397.841C433.334 393.685 549.017 395.763 575.34 418.623L361.292 417.93L180.495 430.399L174.793 429.359Z" fill="#6C63FF"/>
<path d="M116.073 607.04C103.066 607.04 92.521 628.749 92.521 655.529C92.521 682.309 103.066 704.019 116.073 704.019C129.081 704.019 139.625 682.309 139.625 655.529C139.625 628.749 129.081 607.04 116.073 607.04ZM117.112 617.43C119.981 617.43 122.308 623.013 122.308 629.899C122.308 636.785 119.981 642.368 117.112 642.368C114.243 642.368 111.917 636.785 111.917 629.899C111.917 623.013 114.243 617.43 117.112 617.43ZM120.229 655.529C120.229 657.825 118.679 659.686 116.766 659.686C114.853 659.686 113.302 657.825 113.302 655.529C113.302 653.234 114.853 651.373 116.766 651.373C118.679 651.373 120.229 653.234 120.229 655.529V655.529ZM102.132 658.197C97.6781 658.541 93.9514 657.315 93.808 655.46C93.6646 653.604 97.1589 651.82 101.613 651.476C106.067 651.132 109.794 652.358 109.937 654.214C110.081 656.069 106.586 657.853 102.132 658.197L102.132 658.197ZM117.112 693.628C114.243 693.628 111.917 688.046 111.917 681.16C111.917 674.273 114.243 668.691 117.112 668.691C119.981 668.691 122.308 674.273 122.308 681.16C122.308 688.046 119.981 693.628 117.112 693.628H117.112ZM130.533 658.197C126.079 658.541 122.353 657.315 122.209 655.46C122.066 653.604 125.56 651.82 130.014 651.476C134.468 651.132 138.195 652.358 138.338 654.214C138.482 656.069 134.987 657.853 130.533 658.197L130.533 658.197Z" fill="#E4E4E4"/>
<path d="M445.11 639.597C424.451 639.597 407.704 667.354 407.704 701.595C407.704 735.835 424.451 763.592 445.11 763.592C465.769 763.592 482.516 735.835 482.516 701.595C482.516 667.354 465.769 639.597 445.11 639.597ZM422.763 706.247C416.73 706.713 411.682 705.053 411.487 702.539C411.293 700.025 416.027 697.61 422.06 697.144C428.093 696.678 433.141 698.338 433.335 700.851C433.53 703.365 428.796 705.781 422.763 706.247ZM445.132 753.548C441.246 753.548 438.095 745.986 438.095 736.658C438.095 727.33 441.246 719.769 445.132 719.769C449.019 719.769 452.17 727.33 452.17 736.658C452.17 745.986 449.019 753.548 445.132 753.548V753.548ZM439.569 701.941C439.569 698.268 442.05 695.291 445.11 695.291C448.171 695.291 450.652 698.268 450.652 701.941C450.652 705.614 448.171 708.591 445.11 708.591C442.05 708.591 439.569 705.614 439.569 701.941ZM445.132 684.113C441.246 684.113 438.095 676.551 438.095 667.224C438.095 657.896 441.246 650.334 445.132 650.334C449.019 650.334 452.17 657.896 452.17 667.224C452.17 676.551 449.019 684.113 445.132 684.113V684.113ZM468.853 704.862C462.82 705.328 457.772 703.667 457.578 701.154C457.384 698.64 462.117 696.224 468.15 695.758C474.183 695.292 479.232 696.952 479.426 699.466C479.62 701.98 474.887 704.395 468.853 704.862Z" fill="#E4E4E4"/>
<path d="M314.188 515.602L322.501 534.998C322.501 534.998 336.355 540.539 345.36 521.836L327.112 503.589L314.188 515.602Z" fill="#CACACA"/>
<path d="M302.758 520.105C287.862 520.105 275.743 512.025 275.743 502.094C275.743 492.163 287.862 484.084 302.758 484.084C317.655 484.084 329.774 492.163 329.774 502.094C329.774 512.025 317.655 520.105 302.758 520.105Z" fill="#CACACA"/>
<path d="M823.679 583.487L668.802 588.015C668.802 588.015 634.908 597.522 631.449 624.686C631.449 624.686 636.291 646.87 648.742 646.87C661.193 646.87 852.108 636.91 852.108 636.91C852.108 636.91 864.559 617.895 854.183 604.313C843.807 590.731 823.679 583.487 823.679 583.487Z" fill="#3F3D56"/>
<path d="M837.087 592.142L655.462 598.147L655.53 600.224L837.156 594.219L837.087 592.142Z" fill="#E4E4E4"/>
<path d="M843.694 598.727L646.158 607.677L646.252 609.752L843.788 600.802L843.694 598.727Z" fill="#E4E4E4"/>
<path d="M850.608 607.67L638.771 619.045L638.882 621.121L850.719 609.745L850.608 607.67Z" fill="#E4E4E4"/>
<path d="M114.972 561.633C114.126 560.546 113.529 559.286 113.222 557.944C112.915 556.601 112.907 555.207 113.197 553.861C113.487 552.514 114.069 551.248 114.901 550.15C115.734 549.053 116.797 548.152 118.015 547.509L116.048 526.068L128.785 521.695L131.139 552.013C132.083 554.132 132.216 556.524 131.514 558.734C130.812 560.945 129.323 562.821 127.329 564.007C125.336 565.193 122.976 565.607 120.699 565.169C118.421 564.732 116.382 563.474 114.97 561.633L114.972 561.633Z" fill="#FFB8B8"/>
<path d="M128.647 438.571C128.647 438.571 137.388 420.226 145.156 426.675C152.923 433.124 134.506 487.371 134.506 487.371L131.706 540.034L116.944 538.558L112.769 487.255L128.647 438.571Z" fill="#E6E6E6"/>
<path d="M11.3945 709.979L22.3527 718.85L61.7824 680.8L45.6096 667.711L11.3945 709.979Z" fill="#FFB8B8"/>
<path d="M11.4944 704.139L33.0754 721.606C36.7226 724.559 39.0474 728.84 39.5386 733.506C40.0298 738.173 38.647 742.844 35.6945 746.492L35.3329 746.938L0 718.339L11.4944 704.139Z" fill="#2F2E41"/>
<path d="M163.691 734.604H177.789L184.493 680.219H163.688L163.691 734.604Z" fill="#FFB8B8"/>
<path d="M160.093 730.001H187.86C192.552 730.001 197.053 731.865 200.371 735.183C203.69 738.501 205.554 743.001 205.555 747.694V748.27H160.094L160.093 730.001Z" fill="#2F2E41"/>
<path d="M188.429 479.66C188.429 479.66 214.879 511.856 209.129 544.06C203.379 576.264 198.779 600.412 198.779 600.412L189.584 672.86C189.584 672.86 193.034 692.593 188.434 697.676C188.434 697.676 195.334 709.66 182.684 714.26C170.034 718.86 163.204 712.674 163.204 712.674C163.204 712.674 153.929 699.313 159.679 695.868L162.102 553.675L69.9795 674.01C69.9795 674.01 68.2866 688.645 56.4825 688.803L42.3793 699.31L26.2792 690.108L34.3292 679.758C34.3292 679.758 29.7292 668.258 40.0792 665.958L99.8797 587.76L114.83 547.509C114.83 547.509 122.88 516.459 144.73 503.809V490.35L188.429 479.66Z" fill="#2F2E41"/>
<path d="M143.005 423.885C146.487 419.77 151.361 417.079 156.698 416.326C162.036 415.572 167.464 416.808 171.949 419.798L172.905 420.436C183.113 431.996 189.973 446.121 192.748 461.291L197.054 484.836L143.004 496.544L130.333 452.844C128.725 447.297 129.112 441.362 131.427 436.071C133.742 430.78 137.838 426.469 143.004 423.886L143.005 423.885Z" fill="#E6E6E6"/>
<path d="M231.805 566.638C230.307 566.149 228.934 565.336 227.784 564.258C226.633 563.181 225.733 561.864 225.146 560.4C224.56 558.937 224.302 557.363 224.389 555.789C224.477 554.215 224.909 552.679 225.654 551.29L210.062 532.208L219.347 519.905L240.988 547.162C243.238 548.569 244.893 550.753 245.641 553.299C246.389 555.845 246.177 558.577 245.046 560.978C243.914 563.378 241.941 565.28 239.501 566.324C237.061 567.367 234.323 567.479 231.805 566.638H231.805Z" fill="#FFB8B8"/>
<path d="M166.004 441.135C166.004 441.135 162.554 418.135 174.054 419.285C185.554 420.435 202.804 483.685 202.804 483.685L233.854 535.435L218.904 543.485L182.104 497.485L166.004 441.135Z" fill="#E6E6E6"/>
<path d="M187.064 407.51H132.302C131.175 407.509 130.095 407.061 129.299 406.264C128.502 405.468 128.054 404.388 128.053 403.261V379.657C128.053 371.268 131.385 363.223 137.317 357.291C143.249 351.359 151.294 348.027 159.683 348.027C168.071 348.027 176.117 351.359 182.048 357.291C187.98 363.223 191.313 371.268 191.313 379.657V379.657V403.261C191.311 404.388 190.863 405.468 190.067 406.264C189.27 407.061 188.19 407.509 187.064 407.51V407.51Z" fill="#2F2E41"/>
<path d="M166.183 406.96C178.99 406.96 189.373 396.578 189.373 383.771C189.373 370.963 178.99 360.581 166.183 360.581C153.375 360.581 142.993 370.963 142.993 383.771C142.993 396.578 153.375 406.96 166.183 406.96Z" fill="#FFB8B8"/>
<path d="M198.795 382.017H169.611L169.311 377.21L167.815 382.017H163.322L162.729 372.489L159.763 382.017H151.068V381.545C151.068 367.749 160.851 356.525 172.879 356.525H176.993C189.017 356.525 198.804 367.749 198.804 381.545L198.795 382.017Z" fill="#2F2E41"/>
<path d="M170.819 411.916C170.463 411.916 170.107 411.889 169.754 411.834L135.017 406.484V370.303C135.017 366.607 136.485 363.062 139.099 360.449C141.712 357.835 145.257 356.367 148.953 356.367H173.256L172.312 357.331C159.141 370.738 169.064 392.485 176.151 404.256C176.671 405.102 176.906 406.093 176.821 407.082C176.736 408.072 176.336 409.008 175.679 409.752C175.076 410.446 174.329 410.998 173.49 411.373C172.651 411.747 171.74 411.934 170.821 411.919L170.819 411.916Z" fill="#2F2E41"/>
</g>
<defs>
<clipPath id="clip0">
<rect width="1077.33" height="784.027" fill="white"/>
</clipPath>
</defs>
</svg>
